Coordinates
version=1
nRows=24
nColumns=36
inDegrees=no

Units are S.I. units (second, meters, Newtons, ...)
If the header above contains a line with 'inDegrees', this indicates whether rotational values are in degrees (yes) or radians (no).

endheader
time	pelvis_tilt	pelvis_list	pelvis_rotation	pelvis_tx	pelvis_ty	pelvis_tz	hip_flexion_r	hip_adduction_r	hip_rotation_r	knee_angle_r	knee_adduction_r	ankle_angle_r	subtalar_angle_r	mtp_angle_r	hip_flexion_l	hip_adduction_l	hip_rotation_l	knee_angle_l	knee_adduction_l	ankle_angle_l	subtalar_angle_l	mtp_angle_l	lumbar_extension	lumbar_bending	lumbar_rotation	arm_flex_r	arm_add_r	arm_rot_r	elbow_flex_r	pro_sup_r	arm_flex_l	arm_add_l	arm_rot_l	elbow_flex_l	pro_sup_l
5.44	-0.610955	-0.03469	-0.0225932	-0.388393	0.613834	-1.20877	1.70701	-0.178367	-0.160256	1.57009	-0.0472745	0.411321	-0.362773	-0.114958	1.73396	-0.279992	-0.135307	1.56292	-0.084169	0.444237	-0.290228	-0.114958	-0.39446	-0.0199577	-0.0264554	2.3706	-0.139537	0.406668	0.776929	0.394352	2.58305	-0.0973886	1.254	0.479806	2.09
5.445	-0.612991	-0.0341748	-0.022418	-0.38821	0.618072	-1.20874	1.7043	-0.173646	-0.288442	1.5472	-0.17721	0.412386	-0.318534	-0.114958	1.72935	-0.277087	-0.229839	1.54253	-0.177492	0.446113	-0.250562	-0.114958	-0.387325	-0.0204624	-0.0271106	2.36511	-0.139627	0.405671	0.777257	0.395979	2.57809	-0.0984207	1.25001	0.480992	2.09
5.45	-0.614663	-0.0326124	-0.0214518	-0.387605	0.622088	-1.20881	1.6962	-0.173056	-0.219327	1.54083	-0.110801	0.413018	-0.322298	-0.114958	1.72016	-0.275685	-0.188973	1.53369	-0.133593	0.446366	-0.247077	-0.114958	-0.378093	-0.020724	-0.028071	2.35677	-0.137808	0.403215	0.777179	0.395855	2.56857	-0.101482	1.2418	0.484445	2.09
5.455	-0.616959	-0.032299	-0.0215639	-0.387226	0.62639	-1.20879	1.69326	-0.168298	-0.334766	1.5175	-0.228663	0.416013	-0.273415	-0.114958	1.71542	-0.273584	-0.272838	1.51305	-0.216649	0.449884	-0.203623	-0.114958	-0.369359	-0.0205198	-0.0278126	2.34949	-0.137041	0.402088	0.776571	0.399937	2.56051	-0.103565	1.23391	0.487254	2.09
5.46	-0.616247	-0.0322092	-0.0214156	-0.386664	0.630707	-1.20874	1.68401	-0.165486	-0.335496	1.50492	-0.230946	0.417318	-0.257567	-0.114958	1.70559	-0.27267	-0.275834	1.50007	-0.218596	0.451556	-0.18488	-0.114958	-0.364446	-0.0207767	-0.0284379	2.34391	-0.137195	0.402862	0.775456	0.400481	2.55592	-0.1044	1.23451	0.487288	2.09
5.465	-0.614899	-0.0323605	-0.0211832	-0.386085	0.635053	-1.20874	1.67393	-0.163113	-0.331616	1.49289	-0.228033	0.417952	-0.244041	-0.114958	1.69515	-0.271608	-0.275466	1.48753	-0.217219	0.4523	-0.16871	-0.114958	-0.360717	-0.0211726	-0.0290239	2.33929	-0.138294	0.404156	0.775317	0.400806	2.55292	-0.10405	1.23794	0.485867	2.09
5.47	-0.612688	-0.0325802	-0.0210316	-0.385519	0.639466	-1.20874	1.66277	-0.160752	-0.323282	1.48121	-0.220384	0.418541	-0.232249	-0.114958	1.68376	-0.270709	-0.271934	1.47534	-0.212539	0.452941	-0.154067	-0.114958	-0.358512	-0.0220616	-0.0300069	2.33525	-0.140059	0.404884	0.775171	0.399749	2.55207	-0.102607	1.24575	0.482421	2.09
5.475	-0.611349	-0.0321139	-0.0206172	-0.384904	0.643825	-1.20875	1.65247	-0.158796	-0.310045	1.46985	-0.208302	0.418287	-0.223241	-0.114958	1.67274	-0.269513	-0.264454	1.4634	-0.203042	0.452823	-0.141769	-0.114958	-0.354056	-0.0235119	-0.0318137	2.32883	-0.141267	0.404735	0.774921	0.400253	2.54977	-0.101483	1.25809	0.478416	2.09
5.48	-0.611153	-0.0322957	-0.0203298	-0.384239	0.648393	-1.20886	1.64743	-0.156101	-0.443472	1.44054	-0.343663	0.427589	-0.146011	-0.114958	1.66565	-0.267583	-0.354952	1.43966	-0.293066	0.459168	-0.083419	-0.114958	-0.347756	-0.0227816	-0.031501	2.32205	-0.141314	0.405459	0.774572	0.397884	2.53747	-0.103742	1.22597	0.486363	2.09
5.485	-0.60939	-0.0321617	-0.0199627	-0.383366	0.653012	-1.20886	1.63631	-0.154148	-0.445042	1.42669	-0.346099	0.429273	-0.126729	-0.114958	1.65394	-0.266542	-0.359072	1.42571	-0.29539	0.460571	-0.062936	-0.114958	-0.342428	-0.0224137	-0.0312591	2.3148	-0.140861	0.406241	0.772925	0.398954	2.52969	-0.105283	1.22365	0.487452	2.09
5.49	-0.606874	-0.0331285	-0.0201539	-0.382348	0.657817	-1.20866	1.62352	-0.151275	-0.44573	1.41256	-0.346154	0.430921	-0.108279	-0.114958	1.64154	-0.266574	-0.361759	1.41171	-0.297295	0.46191	-0.0411926	-0.114958	-0.337554	-0.0208625	-0.0296843	2.30684	-0.139856	0.406326	0.771842	0.399702	2.52088	-0.107516	1.22089	0.489473	2.09
5.495	-0.605198	-0.032508	-0.0197954	-0.381424	0.662441	-1.20859	1.61241	-0.149514	-0.443966	1.39897	-0.34529	0.431976	-0.0902053	-0.114958	1.62944	-0.265479	-0.363836	1.39777	-0.296879	0.462486	-0.0201749	-0.114958	-0.331974	-0.0212525	-0.0296911	2.29913	-0.139676	0.406519	0.771198	0.399678	2.51329	-0.108779	1.21988	0.490331	2.09
5.5	-0.60365	-0.0307818	-0.0190631	-0.380534	0.66697	-1.20864	1.60198	-0.14859	-0.440383	1.3858	-0.34369	0.432703	-0.0727301	-0.114958	1.61715	-0.263919	-0.36448	1.38426	-0.293586	0.462731	-0.00182374	-0.114958	-0.326407	-0.0230391	-0.0307864	2.2917	-0.14026	0.407104	0.770906	0.399026	2.50665	-0.109115	1.22005	0.490419	2.09
5.505	-0.601417	-0.0289972	-0.0183698	-0.379551	0.671585	-1.20878	1.59062	-0.148057	-0.435572	1.37273	-0.340678	0.433485	-0.0553979	-0.114958	1.60394	-0.262282	-0.36485	1.37078	-0.2897	0.4631	0.0150586	-0.114958	-0.321717	-0.0249858	-0.0317981	2.28448	-0.141517	0.408344	0.771124	0.398272	2.5003	-0.1089	1.22031	0.489775	2.09
5.51	-0.598672	-0.0280963	-0.018159	-0.378492	0.676257	-1.20881	1.57829	-0.146996	-0.430606	1.35965	-0.336171	0.433994	-0.0388307	-0.114958	1.59046	-0.261447	-0.364437	1.35737	-0.285869	0.463577	0.0318724	-0.114958	-0.317609	-0.0264293	-0.0323823	2.27734	-0.142768	0.409971	0.771131	0.397298	2.49397	-0.10891	1.21989	0.490231	2.09
5.515	-0.596406	-0.0271209	-0.0180885	-0.377353	0.680945	-1.20878	1.56626	-0.145791	-0.425511	1.34638	-0.331416	0.433834	-0.022334	-0.114958	1.57719	-0.260692	-0.363572	1.34369	-0.281521	0.463822	0.0484315	-0.114958	-0.312064	-0.0274522	-0.0330089	2.26887	-0.142454	0.410412	0.770198	0.39661	2.48551	-0.110632	1.21743	0.492057	2.09
5.52	-0.593614	-0.0255282	-0.0180112	-0.376191	0.685693	-1.20884	1.55378	-0.144397	-0.420471	1.33271	-0.327833	0.433399	-0.00603082	-0.114958	1.56295	-0.259491	-0.362457	1.32992	-0.276336	0.463877	0.0640461	-0.114958	-0.307296	-0.0292243	-0.0339316	2.26079	-0.142307	0.410681	0.768991	0.39551	2.47784	-0.111854	1.21612	0.493291	2.09
5.525	-0.590528	-0.0240703	-0.0178287	-0.37502	0.690428	-1.20886	1.54092	-0.143213	-0.413905	1.31938	-0.32234	0.432593	0.00880309	-0.114958	1.54847	-0.258193	-0.360597	1.31619	-0.270519	0.463575	0.0788421	-0.114958	-0.302963	-0.0312458	-0.0349214	2.25299	-0.14281	0.411058	0.767947	0.393459	2.47084	-0.111812	1.21603	0.492674	2.09
5.53	-0.587842	-0.0227802	-0.0177987	-0.373747	0.695159	-1.20882	1.52815	-0.142107	-0.405694	1.30625	-0.314538	0.431514	0.0224379	-0.114958	1.53424	-0.257218	-0.357911	1.30242	-0.263867	0.463099	0.0931832	-0.114958	-0.29725	-0.0327518	-0.0348364	2.24373	-0.143563	0.411659	0.76847	0.390521	2.4619	-0.111998	1.21535	0.49181	2.09
5.535	-0.584173	-0.0222664	-0.0177928	-0.372428	0.699953	-1.20881	1.51403	-0.141343	-0.396836	1.2934	-0.304753	0.430096	0.0351483	-0.114958	1.51924	-0.256489	-0.354112	1.2889	-0.256644	0.462461	0.107016	-0.114958	-0.292959	-0.0334938	-0.0346359	2.23533	-0.144394	0.412672	0.768678	0.389081	2.45347	-0.112435	1.2144	0.491892	2.09
5.54	-0.580161	-0.0220136	-0.0176608	-0.371088	0.704749	-1.20883	1.49972	-0.140823	-0.394851	1.27952	-0.301379	0.428819	0.0518526	-0.114958	1.50406	-0.255724	-0.350151	1.27531	-0.249427	0.461034	0.120698	-0.114958	-0.289102	-0.0341424	-0.0352557	2.22634	-0.144919	0.415222	0.767733	0.39065	2.44583	-0.11331	1.21482	0.492308	2.09
5.545	-0.576996	-0.0212158	-0.0176845	-0.369652	0.709546	-1.20886	1.4855	-0.139794	-0.378227	1.26723	-0.28456	0.426648	0.058736	-0.114958	1.48909	-0.254812	-0.343168	1.26163	-0.238832	0.459415	0.13305	-0.114958	-0.283007	-0.0347835	-0.0345139	2.216	-0.145309	0.418605	0.766008	0.39511	2.43477	-0.114937	1.21368	0.495516	2.09
5.55	-0.573669	-0.0205351	-0.0179086	-0.368257	0.7143	-1.20879	1.47221	-0.138638	-0.392371	1.2501	-0.297976	0.428191	0.0889359	-0.114958	1.47471	-0.254416	-0.354709	1.24553	-0.246458	0.459217	0.157209	-0.114958	-0.277463	-0.0355971	-0.0347115	2.20604	-0.145336	0.421055	0.765302	0.38941	2.42528	-0.116297	1.20908	0.494964	2.09
5.555	-0.569335	-0.0195779	-0.0178698	-0.366735	0.71914	-1.20886	1.45704	-0.138298	-0.385286	1.23652	-0.290149	0.427015	0.102943	-0.114958	1.45849	-0.253499	-0.352211	1.23143	-0.239586	0.457275	0.17053	-0.114958	-0.27305	-0.0366112	-0.035152	2.19605	-0.145431	0.422582	0.764575	0.386572	2.41607	-0.118353	1.2093	0.496783	2.09
